<svg width="512" height="512" viewBox="0 0 512 512" fill="none" xmlns="http://www.w3.org/2000/svg">
<path d="M7.5 151.25V181.25H28V504.425H484V181.25H504.5V151.25H7.5Z" fill="white"/>
<path d="M351.5 34.925H160.5C113.556 34.925 75.5 72.981 75.5 119.925C75.5 166.869 113.556 204.925 160.5 204.925C196.121 204.925 226.606 183.005 239.249 151.925H272.752C285.395 183.005 315.879 204.925 351.5 204.925C398.444 204.925 436.5 166.869 436.5 119.925C436.5 72.981 398.444 34.925 351.5 34.925Z" fill="url(#paint0_linear_290_87)"/>
<path d="M195.925 104.925H168.75V77.7501H138.75V104.925H111.575V134.925H138.75V162.1H168.75V134.925H195.925V104.925ZM205 7.57507H168.75C160.466 7.57507 153.75 14.2911 153.75 22.5751V34.9251H220V22.5751C220 14.2911 213.284 7.57507 205 7.57507ZM346 7.57507H309.75C301.466 7.57507 294.75 14.2911 294.75 22.5751V34.9251H361V22.5751C361 14.2911 354.284 7.57507 346 7.57507Z" fill="white"/>
<path d="M58 239.255V474.425H154.125V285.425H357.875V474.425H454V239.255H58Z" fill="url(#paint1_linear_290_87)"/>
<path d="M131.25 169.6H176.25V142.425H203.425V97.4251H176.25V70.2501H131.25V97.4251H104.075V142.425H131.25V169.6ZM119.075 127.425V112.425H146.25V85.2501H161.25V112.425H188.425V127.425H161.25V154.6H146.25V127.425H119.075ZM356.971 110.062L346.364 99.4551L369.2 76.6171L379.807 87.2241L356.971 110.062ZM322.971 146.062L312.364 135.455L335.201 112.618L345.808 123.225L322.971 146.062ZM370.363 123.454L393.2 100.617L403.807 111.224L380.97 134.061L370.363 123.454ZM359.2 136.617L369.807 147.224L346.97 170.061L336.363 159.454L359.2 136.617ZM512 188.755V143.755H440.882C442.956 135.982 444.004 127.97 444 119.925C444 74.7261 411.413 37.001 368.5 28.997V22.576C368.5 10.17 358.406 0.0760498 346 0.0760498H309.75C297.344 0.0760498 287.25 10.17 287.25 22.576V27.4261H227.5V22.576C227.5 10.17 217.406 0.0760498 205 0.0760498H168.75C156.344 0.0760498 146.25 10.17 146.25 22.576V28.524C101.987 35.396 68 73.7651 68 119.925C67.9963 127.97 69.0445 135.982 71.118 143.755H0V188.755H20.5V496.925H0V511.925H512V496.925H491.5V188.755H512ZM497 158.755V173.755H426.679C430.064 169.041 432.998 164.019 435.443 158.755H497ZM302.25 22.5751C302.25 18.4391 305.614 15.075 309.75 15.075H346C350.136 15.075 353.5 18.4391 353.5 22.5751V27.4501C352.833 27.4347 352.167 27.4264 351.5 27.425H302.25V22.5751ZM168.75 15.075H205C209.136 15.075 212.5 18.4391 212.5 22.5751V27.425H161.25V22.5751C161.25 18.4391 164.614 15.075 168.75 15.075ZM160.5 42.425H351.5C394.233 42.425 429 77.1921 429 119.925C429 162.658 394.233 197.425 351.5 197.425C319.824 197.425 291.642 178.456 279.699 149.099L277.798 144.425H234.202L232.301 149.099C220.359 178.456 192.176 197.425 160.5 197.425C117.767 197.425 83 162.658 83 119.925C83 77.1921 117.767 42.425 160.5 42.425ZM276.241 173.755H235.758C238.975 169.238 241.782 164.442 244.145 159.425H267.854C270.218 164.442 273.025 169.237 276.241 173.755ZM15 158.755H76.557C79.0017 164.019 81.936 169.041 85.321 173.755H15V158.755ZM146.625 277.925V466.925H65.5V246.755H446.5V466.925H365.375V277.925H146.625ZM161.625 292.925H350.375V496.925H335.375V307.925H176.625V496.925H161.625V292.925ZM320.375 496.925H191.625V322.925H320.375V496.925ZM476.5 496.925H365.375V481.925H461.5V231.755H50.5V481.925H146.625V496.925H35.5V188.755H98.775C115.159 203.463 136.801 212.425 160.5 212.425C183.937 212.425 205.766 203.716 222.374 188.755H289.626C306.234 203.716 328.063 212.425 351.5 212.425C375.199 212.425 396.841 203.463 413.225 188.755H476.5V496.925ZM115.696 314.121L126.303 324.728L94.303 356.728L83.696 346.121L115.696 314.121ZM115.696 357.121L126.303 367.728L94.303 399.728L83.696 389.121L115.696 357.121ZM396.304 356.729L385.697 346.122L417.697 314.122L428.304 324.729L396.304 356.729ZM396.304 399.729L385.697 389.122L417.697 357.122L428.304 367.729L396.304 399.729Z" fill="url(#paint2_linear_290_87)"/>
<defs>
<linearGradient id="paint0_linear_290_87" x1="256" y1="34.925" x2="256" y2="204.925" gradientUnits="userSpaceOnUse">
<stop stop-color="#A8ABFF"/>
<stop offset="1" stop-color="#FAC8FF"/>
</linearGradient>
<linearGradient id="paint1_linear_290_87" x1="256" y1="239.255" x2="256" y2="474.425" gradientUnits="userSpaceOnUse">
<stop stop-color="#96D1F3"/>
<stop offset="1" stop-color="#CCFFF4"/>
</linearGradient>
<linearGradient id="paint2_linear_290_87" x1="256" y1="0.0750498" x2="256" y2="511.925" gradientUnits="userSpaceOnUse">
<stop stop-color="#174FA3"/>
<stop offset="1" stop-color="#B044AF"/>
</linearGradient>
</defs>
</svg>
