<svg width="56" height="55" viewBox="0 0 56 55" fill="none" xmlns="http://www.w3.org/2000/svg">
<path d="M49.1436 54.4062H36.8115C33.4565 54.4062 30.7362 51.6859 30.7362 48.3309V31.737C30.7362 30.7395 31.5523 29.9234 32.5497 29.9234H49.1436C52.4987 29.9234 55.219 32.6437 55.219 35.9988V48.3309C55.219 51.6859 52.4987 54.4062 49.1436 54.4062ZM34.3633 33.5505V48.3309C34.3633 49.691 35.4514 50.7792 36.8115 50.7792H49.1436C50.5038 50.7792 51.5919 49.691 51.5919 48.3309V35.9988C51.5919 34.6386 50.5038 33.5505 49.1436 33.5505H34.3633ZM19.2202 54.4062H6.88811C3.53306 54.4062 0.812744 51.6859 0.812744 48.3309V35.9988C0.812744 32.6437 3.53306 29.9234 6.88811 29.9234H23.482C24.4795 29.9234 25.2956 30.7395 25.2956 31.737V48.3309C25.2956 51.6859 22.5752 54.4062 19.2202 54.4062ZM6.88811 33.5505C5.52795 33.5505 4.43983 34.6386 4.43983 35.9988V48.3309C4.43983 49.691 5.52795 50.7792 6.88811 50.7792H19.2202C20.5803 50.7792 21.6685 49.691 21.6685 48.3309V33.5505H6.88811ZM49.1436 24.4828H32.5497C31.5523 24.4828 30.7362 23.6667 30.7362 22.6693V6.07536C30.7362 2.72031 33.4565 0 36.8115 0H49.1436C52.4987 0 55.219 2.72031 55.219 6.07536V18.4074C55.219 21.7625 52.4987 24.4828 49.1436 24.4828ZM34.3633 20.8557H49.1436C50.5038 20.8557 51.5919 19.7676 51.5919 18.4074V6.07536C51.5919 4.71521 50.5038 3.62708 49.1436 3.62708H36.8115C35.4514 3.62708 34.3633 4.71521 34.3633 6.07536V20.8557ZM23.482 24.4828H6.88811C3.53306 24.4828 0.812744 21.7625 0.812744 18.4074V6.07536C0.812744 2.72031 3.53306 0 6.88811 0H19.2202C22.5752 0 25.2956 2.72031 25.2956 6.07536V22.6693C25.2956 23.6667 24.4795 24.4828 23.482 24.4828ZM6.88811 3.62708C5.52795 3.62708 4.43983 4.71521 4.43983 6.07536V18.4074C4.43983 19.7676 5.52795 20.8557 6.88811 20.8557H21.6685V6.07536C21.6685 4.71521 20.5803 3.62708 19.2202 3.62708H6.88811Z" fill="white"/>
</svg>
