<svg width="25" height="25" viewBox="0 0 25 25" fill="none" xmlns="http://www.w3.org/2000/svg">
<path fill-rule="evenodd" clip-rule="evenodd" d="M0.486071 21.3618C0.174845 21.673 0 22.0952 0 22.5353C0 22.9754 0.174845 23.3976 0.486071 23.7088C0.797298 24.02 1.21941 24.1949 1.65955 24.1949C2.09969 24.1949 2.52181 24.02 2.83303 23.7088L12.0965 14.442L21.3616 23.7071C21.6744 24.0093 22.0934 24.1764 22.5283 24.1727C22.9632 24.1689 23.3792 23.9944 23.6867 23.6869C23.9942 23.3794 24.1686 22.9634 24.1724 22.5285C24.1762 22.0936 24.009 21.6746 23.7069 21.3618L14.4418 12.0967L23.7069 2.83162C24.0179 2.52039 24.1925 2.09836 24.1924 1.65838C24.1922 1.21839 24.0173 0.796491 23.7061 0.485485C23.3948 0.174478 22.9728 -0.000155418 22.5328 1.03787e-07C22.0928 0.000155626 21.6709 0.175088 21.3599 0.486314L12.0965 9.75142L2.83137 0.486314C2.51855 0.184181 2.09958 0.0170011 1.66469 0.0207801C1.2298 0.0245592 0.813799 0.198995 0.506276 0.506518C0.198752 0.814042 0.0243163 1.23005 0.0205372 1.66493C0.0167581 2.09982 0.183939 2.5188 0.486071 2.83162L9.75118 12.0967L0.486071 21.3618Z" fill="white"/>
</svg>
