<svg width="54" height="71" viewBox="0 0 54 71" fill="none" xmlns="http://www.w3.org/2000/svg">
<path d="M45.2083 27.509L44.8378 27.1429L44.7691 27.086C39.3961 22.6257 36.7833 15.9344 37.6008 8.72739L38.5622 0.254028L30.3179 4.70245C21.5561 9.42991 15.7877 18.1879 14.8168 27.9806L5.56562 25.2795L4.84347 26.9289C1.93308 33.5723 0.495197 39.9497 0.569183 45.8843C0.649982 52.3573 3.24467 58.427 7.87512 62.9755C12.4969 67.5155 18.6112 70.0161 25.0912 70.0161H29.0559C42.5024 70.0161 53.5029 59.1811 53.5778 45.8623C53.6201 38.3572 50.8815 32.353 45.2084 27.509H45.2083ZM26.0816 65.9189C21.0774 65.9189 16.9554 61.8674 16.893 56.8873C16.8675 54.8466 17.2751 52.6527 18.1064 50.3466L23.9207 52.0439L23.9452 49.3373C23.9809 45.4083 25.9639 41.7801 29.1893 39.6208C29.1798 43.6174 30.8434 47.2701 33.887 49.8318L34.0067 49.9499L34.1212 50.0548C36.3027 51.9076 37.2682 54.0179 37.2523 56.8974C37.2241 61.8722 33.1024 65.9188 28.0643 65.9188L26.0816 65.9189ZM39.8949 62.8244C40.8405 60.9995 41.3388 58.9761 41.3489 56.9208C41.3718 52.8603 39.8949 49.6094 36.834 46.9838L36.6434 46.7954L36.5747 46.739C34.1238 44.7037 32.98 41.7646 33.3542 38.4632L34.0556 32.2786L28.2084 35.4336C23.8919 37.7627 20.9348 41.9227 20.0934 46.6586L15.7423 45.3881L15.0201 47.0371C13.5058 50.4935 12.7575 53.8247 12.7969 56.9388C12.8224 59.0035 13.3205 60.9924 14.2371 62.7818C8.57029 59.2132 4.75518 52.9497 4.66579 45.8332C4.60516 40.9716 5.69301 35.7301 7.90074 30.2294L18.7452 33.3956L18.7697 30.6892C18.8549 21.3292 24.025 12.7531 32.2629 8.30841L33.608 7.58245L33.5304 8.2659C32.5579 16.8398 35.6742 24.8213 42.083 30.1804L42.3821 30.4764L42.4966 30.5813C47.2968 34.6576 49.5162 39.5063 49.4811 45.8394C49.4406 52.9816 45.6128 59.2637 39.8949 62.8244Z" fill="white"/>
</svg>
