<svg width="33" height="31" viewBox="0 0 33 31" fill="none" xmlns="http://www.w3.org/2000/svg">
<path d="M16.2098 30.5C16.0458 30.5 15.8818 30.4539 15.7349 30.3616C15.5754 30.2615 11.7844 27.8671 7.93901 24.2595C5.65989 22.1213 3.8406 20.0005 2.5318 17.9562C0.838131 15.3109 -0.0135767 12.7664 0.000163622 10.3934C0.0162467 7.63208 0.925448 5.03524 2.56048 3.08118C4.22312 1.09419 6.44195 0 8.80838 0C11.8412 0 14.614 1.84799 16.2098 4.77544C17.8057 1.84806 20.5785 0 23.6113 0C25.847 0 27.98 0.987295 29.6177 2.78005C31.4149 4.7474 32.4361 7.52718 32.4194 10.4065C32.4056 12.7754 31.5379 15.316 29.8405 17.9577C28.5277 20.001 26.7109 22.1207 24.4407 24.2583C20.6094 27.8656 16.8456 30.2599 16.6873 30.36C16.5422 30.4517 16.3775 30.5 16.2098 30.5Z" fill="white"/>
</svg>
