<svg width="32" height="32" viewBox="0 0 32 32" fill="none" xmlns="http://www.w3.org/2000/svg">
<path d="M31.609 29.7237L22.5091 20.6238C24.2717 18.4465 25.333 15.6798 25.333 12.6665C25.333 5.68262 19.6504 0 12.6665 0C5.68256 0 0 5.68256 0 12.6665C0 19.6504 5.68263 25.333 12.6665 25.333C15.6798 25.333 18.4465 24.2717 20.6238 22.5091L29.7237 31.609C29.9837 31.869 30.325 31.9996 30.6664 31.9996C31.0077 31.9996 31.349 31.869 31.609 31.609C32.1303 31.0877 32.1303 30.245 31.609 29.7237ZM12.6665 22.6664C7.15192 22.6664 2.66666 18.1811 2.66666 12.6665C2.66666 7.15186 7.15192 2.6666 12.6665 2.6666C18.1812 2.6666 22.6664 7.15186 22.6664 12.6665C22.6664 18.1811 18.1811 22.6664 12.6665 22.6664Z" fill="white"/>
</svg>
