<svg width="29" height="29" viewBox="0 0 29 29" fill="none" xmlns="http://www.w3.org/2000/svg">
<path d="M1.22537 3.55474e-08C0.900385 3.55474e-08 0.588706 0.129102 0.358904 0.358904C0.129102 0.588706 0 0.900385 0 1.22537C0 1.55036 0.129102 1.86204 0.358904 2.09184C0.588706 2.32165 0.900385 2.45075 1.22537 2.45075H3.40654C3.58466 2.45106 3.75818 2.50729 3.90262 2.6115C4.04707 2.71571 4.15515 2.86265 4.21161 3.03158L8.25167 15.1542C8.4318 15.6934 8.45386 16.2717 8.31662 16.8232L7.98454 18.1551C7.49561 20.1084 9.0163 22.0567 11.0284 22.0567H25.7329C26.0578 22.0567 26.3695 21.9276 26.5993 21.6978C26.8291 21.468 26.9582 21.1564 26.9582 20.8314C26.9582 20.5064 26.8291 20.1947 26.5993 19.9649C26.3695 19.7351 26.0578 19.606 25.7329 19.606H11.0284C10.5505 19.606 10.2441 19.2139 10.3605 18.7519L10.6117 17.7495C10.6541 17.58 10.7518 17.4294 10.8894 17.3218C11.0271 17.2141 11.1967 17.1555 11.3715 17.1552H24.5075C24.765 17.1556 25.016 17.0748 25.225 16.9243C25.434 16.7738 25.5902 16.5614 25.6716 16.3171L28.9372 6.51409C28.9986 6.32988 29.0153 6.13372 28.9859 5.94178C28.9566 5.74985 28.8821 5.56763 28.7685 5.41014C28.655 5.25266 28.5056 5.12441 28.3327 5.03598C28.1599 4.94754 27.9685 4.90145 27.7743 4.9015H8.03233C7.854 4.90144 7.68021 4.84533 7.53552 4.7411C7.39083 4.63687 7.28256 4.4898 7.22603 4.32067L6.06438 0.838156C5.98307 0.594054 5.827 0.381736 5.61828 0.231299C5.40956 0.0808614 5.15878 -6.19189e-05 4.9015 3.55474e-08H1.22537ZM9.80299 23.2821C9.15302 23.2821 8.52966 23.5403 8.07005 23.9999C7.61045 24.4595 7.35225 25.0829 7.35225 25.7329C7.35225 26.3828 7.61045 27.0062 8.07005 27.4658C8.52966 27.9254 9.15302 28.1836 9.80299 28.1836C10.453 28.1836 11.0763 27.9254 11.5359 27.4658C11.9955 27.0062 12.2537 26.3828 12.2537 25.7329C12.2537 25.0829 11.9955 24.4595 11.5359 23.9999C11.0763 23.5403 10.453 23.2821 9.80299 23.2821ZM24.5075 23.2821C23.8575 23.2821 23.2341 23.5403 22.7745 23.9999C22.3149 24.4595 22.0567 25.0829 22.0567 25.7329C22.0567 26.3828 22.3149 27.0062 22.7745 27.4658C23.2341 27.9254 23.8575 28.1836 24.5075 28.1836C25.1575 28.1836 25.7808 27.9254 26.2404 27.4658C26.7 27.0062 26.9582 26.3828 26.9582 25.7329C26.9582 25.0829 26.7 24.4595 26.2404 23.9999C25.7808 23.5403 25.1575 23.2821 24.5075 23.2821Z" fill="white"/>
</svg>
